<svg xmlns="http://www.w3.org/2000/svg" viewBox="0 0 622.6 659.5"><defs><style>.a{fill:#fff;}</style></defs><title>logo</title><path class="a" d="M273.2,842.6H749.1c-1.5-12.2-2.4-27.2-2.9-44.7-.3-10.5-.5-21.7-.5-33.6V697.4c-20-9.2-34.2-17.7-37.5-23.5l37.5-34.1V574.5c0-13.1.2-23.4.5-32.8.4-10.8,1.1-20.5,2.3-31.9-19.9,2.2-38.7,2.8-65.3,2.8H339c-27.2,0-45.4-.6-65.3-2.8,2.3,22,2.8,38.6,2.8,64.7V764.3C276.5,800.5,275.3,822.7,273.2,842.6Zm116.9-242H633.9v32.8H390.1Zm0,111.4H633.9v36.4H390.1ZM823.2,380.5v99H200.6v-99c7.7.8,15.6,1.5,24.1,1.9V303c0-23.6-1.5-48-3.6-71.8H341.7c-2.2,20.8-2.9,37.3-2.9,71.1v81.1H453.1V261.3c0-27.2-1.5-53.8-5-78.2H574.5c-3.6,25.1-5.1,50.2-5.1,78.2V383.5H685.2V301.2c0-25.7-1.5-47.3-3.6-70.3H802.9c-2.2,25.2-3.5,47.4-3.5,71.1v80.3C807.7,381.9,815.4,381.3,823.2,380.5Z" transform="translate(-200.6 -183.1)"/></svg>