<?xml version="1.0" encoding="utf-8"?>
<!-- Generator: Adobe Illustrator 24.0.1, SVG Export Plug-In . SVG Version: 6.00 Build 0)  -->
<svg version="1.1" id="Layer_2_1_" xmlns="http://www.w3.org/2000/svg" xmlns:xlink="http://www.w3.org/1999/xlink" x="0px" y="0px"
	 viewBox="0 0 117.3 117.8" style="enable-background:new 0 0 117.3 117.8;" xml:space="preserve">
<style type="text/css">
	.st0{fill:#FFFFFF;}
</style>
<g>
	<path class="st0" d="M0,30.9L0,30.9c0,2.2,1.8,4,4,4h109.3c2.2,0,4-1.8,4-4l0,0c0-2.2-1.8-4-4-4H4C1.8,26.9,0,28.7,0,30.9z"/>
	<path class="st0" d="M0,58.9L0,58.9c0,2.2,1.8,4,4,4h71.9c2.2,0,4-1.8,4-4l0,0c0-2.2-1.8-4-4-4H4C1.8,54.9,0,56.7,0,58.9z"/>
	<path class="st0" d="M0,86.9L0,86.9c0,2.2,1.8,4,4,4h90.6c2.2,0,4-1.8,4-4l0,0c0-2.2-1.8-4-4-4H4C1.8,82.9,0,84.7,0,86.9z"/>
</g>
</svg>
