<?xml version="1.0" encoding="UTF-8"?>
<svg width="20px" height="30px" viewBox="0 0 20 30" version="1.1" xmlns="http://www.w3.org/2000/svg" xmlns:xlink="http://www.w3.org/1999/xlink">
    <!-- Generator: Sketch 63.1 (92452) - https://sketch.com -->
    <title>Artboard</title>
    <desc>Created with Sketch.</desc>
    <defs>
        <polygon id="path-1" points="0 0.2154 17.372 0.2154 17.372 24 0 24"></polygon>
    </defs>
    <g id="Artboard" stroke="none" stroke-width="1" fill="none" fill-rule="evenodd">
        <g id="Group-8" transform="translate(0.000000, -1.000000)">
            <polygon id="Fill-1" fill="#F2F2F2" points="1.6589 22.1175 6.8209 16.9555 7.0629 16.7135 7.4069 16.7135 14.7049 16.7135 1.6589 3.6675"></polygon>
            <g id="Group-7" transform="translate(0.000000, 0.784900)">
                <path d="M7.4069,15.9283 L7.0629,15.9283 L6.8209,16.1713 L1.6589,21.3323 L1.6589,2.8823 L14.7049,15.9283 L7.4069,15.9283 Z M16.5079,16.5583 L1.0279,1.0783 C1.0039,1.0553 0.9749,1.0443 0.9469,1.0443 C0.8869,1.0443 0.8289,1.0913 0.8289,1.1613 L0.8289,23.0533 C0.8289,23.1243 0.8869,23.1703 0.9469,23.1703 C0.9749,23.1703 1.0039,23.1603 1.0279,23.1363 L4.2179,19.9473 L7.4069,16.7573 L16.4259,16.7573 C16.5299,16.7573 16.5819,16.6323 16.5079,16.5583 L16.5079,16.5583 Z" id="Fill-2" fill="#000000"></path>
                <g id="Group-6">
                    <mask id="mask-2" fill="white">
                        <use xlink:href="#path-1"></use>
                    </mask>
                    <g id="Clip-5"></g>
                    <path d="M7.4069,16.7574 L4.2179,19.9464 L1.0279,23.1364 C1.0039,23.1604 0.9749,23.1704 0.9469,23.1704 C0.8869,23.1704 0.8289,23.1244 0.8289,23.0534 L0.8289,1.1614 C0.8289,1.0904 0.8869,1.0444 0.9469,1.0444 C0.9749,1.0444 1.0039,1.0554 1.0279,1.0784 L16.5079,16.5584 C16.5819,16.6324 16.5299,16.7574 16.4259,16.7574 L7.4069,16.7574 Z M17.0949,15.9724 L1.6149,0.4924 C1.4359,0.3134 1.1989,0.2154 0.9469,0.2154 C0.4249,0.2154 -0.0001,0.6394 -0.0001,1.1614 L-0.0001,23.0534 C-0.0001,23.5754 0.4249,24.0004 0.9469,24.0004 C1.1989,24.0004 1.4359,23.9014 1.6149,23.7224 L7.7499,17.5874 L16.4259,17.5874 C16.8099,17.5874 17.1529,17.3574 17.2999,17.0034 C17.4469,16.6484 17.3659,16.2434 17.0949,15.9724 L17.0949,15.9724 Z" id="Fill-4" fill="#F2F2F2" mask="url(#mask-2)"></path>
                </g>
            </g>
        </g>
    </g>
</svg>